<svg width="336" height="551" viewBox="0 0 336 551" fill="none" xmlns="http://www.w3.org/2000/svg">
<mask id="path-1-inside-1_401_33" fill="white">
<path fill-rule="evenodd" clip-rule="evenodd" d="M50.6438 0C23.0296 0 0.643799 22.3857 0.643799 50V501C0.643799 528.614 23.0296 551 50.6438 551H206.644H235.644H285.644C313.258 551 335.644 528.614 335.644 501V461C335.644 433.386 313.258 411 285.644 411V410.919C284.317 410.973 282.984 411 281.644 411H206.644H192.644C139.072 411 95.6438 367.572 95.6438 314C95.6438 260.428 139.072 217 192.644 217H221.644H281.644C282.984 217 284.317 217.027 285.644 217.081V217H295.644C317.735 217 335.644 199.091 335.644 177V40C335.644 17.9086 317.735 0 295.644 0H235.644H221.644H50.6438Z"/>
</mask>
<path fill-rule="evenodd" clip-rule="evenodd" d="M50.6438 0C23.0296 0 0.643799 22.3857 0.643799 50V501C0.643799 528.614 23.0296 551 50.6438 551H206.644H235.644H285.644C313.258 551 335.644 528.614 335.644 501V461C335.644 433.386 313.258 411 285.644 411V410.919C284.317 410.973 282.984 411 281.644 411H206.644H192.644C139.072 411 95.6438 367.572 95.6438 314C95.6438 260.428 139.072 217 192.644 217H221.644H281.644C282.984 217 284.317 217.027 285.644 217.081V217H295.644C317.735 217 335.644 199.091 335.644 177V40C335.644 17.9086 317.735 0 295.644 0H235.644H221.644H50.6438Z" fill="white" fill-opacity="0.03"/>
<path d="M285.644 411H283.644V413H285.644V411ZM285.644 410.919H287.644V408.836L285.563 408.921L285.644 410.919ZM285.644 217.081L285.563 219.079L287.644 219.164V217.081H285.644ZM285.644 217V215H283.644V217H285.644ZM2.6438 50C2.6438 23.4903 24.1341 2 50.6438 2V-2C21.925 -2 -1.3562 21.2812 -1.3562 50H2.6438ZM2.6438 501V50H-1.3562V501H2.6438ZM50.6438 549C24.1341 549 2.6438 527.51 2.6438 501H-1.3562C-1.3562 529.719 21.925 553 50.6438 553V549ZM206.644 549H50.6438V553H206.644V549ZM235.644 549H206.644V553H235.644V549ZM285.644 549H235.644V553H285.644V549ZM333.644 501C333.644 527.51 312.153 549 285.644 549V553C314.363 553 337.644 529.719 337.644 501H333.644ZM333.644 461V501H337.644V461H333.644ZM285.644 413C312.153 413 333.644 434.49 333.644 461H337.644C337.644 432.281 314.363 409 285.644 409V413ZM283.644 410.919V411H287.644V410.919H283.644ZM281.644 413C283.011 413 284.371 412.972 285.725 412.917L285.563 408.921C284.263 408.973 282.957 409 281.644 409V413ZM206.644 413H281.644V409H206.644V413ZM192.644 413H206.644V409H192.644V413ZM93.6438 314C93.6438 368.676 137.968 413 192.644 413V409C140.177 409 97.6438 366.467 97.6438 314H93.6438ZM192.644 215C137.968 215 93.6438 259.324 93.6438 314H97.6438C97.6438 261.533 140.177 219 192.644 219V215ZM221.644 215H192.644V219H221.644V215ZM281.644 215H221.644V219H281.644V215ZM285.725 215.083C284.371 215.028 283.011 215 281.644 215V219C282.957 219 284.263 219.027 285.563 219.079L285.725 215.083ZM283.644 217V217.081H287.644V217H283.644ZM295.644 215H285.644V219H295.644V215ZM333.644 177C333.644 197.987 316.631 215 295.644 215V219C318.84 219 337.644 200.196 337.644 177H333.644ZM333.644 40V177H337.644V40H333.644ZM295.644 2C316.631 2 333.644 19.0132 333.644 40H337.644C337.644 16.804 318.84 -2 295.644 -2V2ZM235.644 2H295.644V-2H235.644V2ZM221.644 2H235.644V-2H221.644V2ZM50.6438 2H221.644V-2H50.6438V2Z" fill="#DEDEDE" mask="url(#path-1-inside-1_401_33)"/>
</svg>
