<svg width="551" height="685" viewBox="0 0 551 685" fill="none" xmlns="http://www.w3.org/2000/svg">
<mask id="path-1-inside-1_27_318" fill="white">
<path fill-rule="evenodd" clip-rule="evenodd" d="M50 0C22.3858 0 0 22.3858 0 50V635C0 662.614 22.3857 685 50 685H415H448.769H501C528.614 685 551 662.614 551 635V562C551 534.386 528.614 512 501 512H498.769H415H257C201.219 512 156 466.781 156 411C156 355.219 201.219 310 257 310H414.617H498.769H501C528.614 310 551 287.614 551 260V50C551 22.3858 528.614 0 501 0H448.769H414.617H50Z"/>
</mask>
<path fill-rule="evenodd" clip-rule="evenodd" d="M50 0C22.3858 0 0 22.3858 0 50V635C0 662.614 22.3857 685 50 685H415H448.769H501C528.614 685 551 662.614 551 635V562C551 534.386 528.614 512 501 512H498.769H415H257C201.219 512 156 466.781 156 411C156 355.219 201.219 310 257 310H414.617H498.769H501C528.614 310 551 287.614 551 260V50C551 22.3858 528.614 0 501 0H448.769H414.617H50Z" fill="white" fill-opacity="0.03"/>
<path d="M2 50C2 23.4903 23.4903 2 50 2V-2C21.2812 -2 -2 21.2812 -2 50H2ZM2 635V50H-2V635H2ZM50 683C23.4903 683 2 661.51 2 635H-2C-2 663.719 21.2812 687 50 687V683ZM415 683H50V687H415V683ZM448.769 683H415V687H448.769V683ZM501 683H448.769V687H501V683ZM549 635C549 661.51 527.51 683 501 683V687C529.719 687 553 663.719 553 635H549ZM549 562V635H553V562H549ZM501 514C527.51 514 549 535.49 549 562H553C553 533.281 529.719 510 501 510V514ZM498.769 514H501V510H498.769V514ZM415 514H498.769V510H415V514ZM257 514H415V510H257V514ZM154 411C154 467.885 200.115 514 257 514V510C202.324 510 158 465.676 158 411H154ZM257 308C200.115 308 154 354.115 154 411H158C158 356.324 202.324 312 257 312V308ZM414.617 308H257V312H414.617V308ZM498.769 308H414.617V312H498.769V308ZM501 308H498.769V312H501V308ZM549 260C549 286.51 527.51 308 501 308V312C529.719 312 553 288.719 553 260H549ZM549 50V260H553V50H549ZM501 2C527.51 2 549 23.4903 549 50H553C553 21.2812 529.719 -2 501 -2V2ZM448.769 2H501V-2H448.769V2ZM414.617 2H448.769V-2H414.617V2ZM50 2H414.617V-2H50V2Z" fill="#DEDEDE" mask="url(#path-1-inside-1_27_318)"/>
</svg>
