<svg width="1160" height="685" viewBox="0 0 1160 685" fill="none" xmlns="http://www.w3.org/2000/svg">
<mask id="path-1-inside-1_404_32" fill="white">
<path fill-rule="evenodd" clip-rule="evenodd" d="M50 0C22.3858 0 0 22.3858 0 50V635C0 662.614 22.3858 685 50 685H805H1034H1110C1137.61 685 1160 662.614 1160 635V455.428C1160 427.814 1137.61 405.428 1110 405.428H1084V405H543C492.742 405 452 364.258 452 314C452 263.742 492.742 223 543 223H1084V222.889H1110C1137.61 222.889 1160 200.503 1160 172.889V50C1160 22.3858 1137.61 0 1110 0H1034H805H50Z"/>
</mask>
<path fill-rule="evenodd" clip-rule="evenodd" d="M50 0C22.3858 0 0 22.3858 0 50V635C0 662.614 22.3858 685 50 685H805H1034H1110C1137.61 685 1160 662.614 1160 635V455.428C1160 427.814 1137.61 405.428 1110 405.428H1084V405H543C492.742 405 452 364.258 452 314C452 263.742 492.742 223 543 223H1084V222.889H1110C1137.61 222.889 1160 200.503 1160 172.889V50C1160 22.3858 1137.61 0 1110 0H1034H805H50Z" fill="white" fill-opacity="0.03"/>
<path d="M1084 405.428H1082V407.428H1084V405.428ZM1084 405H1086V403H1084V405ZM1084 223V225H1086V223H1084ZM1084 222.889V220.889H1082V222.889H1084ZM2 50C2 23.4903 23.4903 2 50 2V-2C21.2812 -2 -2 21.2812 -2 50H2ZM2 635V50H-2V635H2ZM50 683C23.4903 683 2 661.51 2 635H-2C-2 663.719 21.2812 687 50 687V683ZM805 683H50V687H805V683ZM1034 683H805V687H1034V683ZM1110 683H1034V687H1110V683ZM1158 635C1158 661.51 1136.51 683 1110 683V687C1138.72 687 1162 663.719 1162 635H1158ZM1158 455.428V635H1162V455.428H1158ZM1110 407.428C1136.51 407.428 1158 428.918 1158 455.428H1162C1162 426.709 1138.72 403.428 1110 403.428V407.428ZM1084 407.428H1110V403.428H1084V407.428ZM1082 405V405.428H1086V405H1082ZM543 407H1084V403H543V407ZM450 314C450 365.362 491.638 407 543 407V403C493.847 403 454 363.153 454 314H450ZM543 221C491.638 221 450 262.638 450 314H454C454 264.847 493.847 225 543 225V221ZM1084 221H543V225H1084V221ZM1082 222.889V223H1086V222.889H1082ZM1110 220.889H1084V224.889H1110V220.889ZM1158 172.889C1158 199.399 1136.51 220.889 1110 220.889V224.889C1138.72 224.889 1162 201.608 1162 172.889H1158ZM1158 50V172.889H1162V50H1158ZM1110 2C1136.51 2 1158 23.4903 1158 50H1162C1162 21.2812 1138.72 -2 1110 -2V2ZM1034 2H1110V-2H1034V2ZM805 2H1034V-2H805V2ZM50 2H805V-2H50V2Z" fill="#DEDEDE" mask="url(#path-1-inside-1_404_32)"/>
</svg>
