<svg width="551" height="685" viewBox="0 0 551 685" fill="none" xmlns="http://www.w3.org/2000/svg">
<mask id="path-1-inside-1_27_346" fill="white">
<path fill-rule="evenodd" clip-rule="evenodd" d="M50 0C22.3858 0 0 22.3858 0 50V635C0 662.614 22.3858 685 50 685H390H396H501C528.614 685 551 662.614 551 635V528C551 500.386 528.614 478 501 478H446H390H224.5C186.668 478 156 447.332 156 409.5C156 371.668 186.668 341 224.5 341H358H446H501C528.614 341 551 318.614 551 291V50C551 22.3858 528.614 0 501 0H396H358H50Z"/>
</mask>
<path fill-rule="evenodd" clip-rule="evenodd" d="M50 0C22.3858 0 0 22.3858 0 50V635C0 662.614 22.3858 685 50 685H390H396H501C528.614 685 551 662.614 551 635V528C551 500.386 528.614 478 501 478H446H390H224.5C186.668 478 156 447.332 156 409.5C156 371.668 186.668 341 224.5 341H358H446H501C528.614 341 551 318.614 551 291V50C551 22.3858 528.614 0 501 0H396H358H50Z" fill="white" fill-opacity="0.03"/>
<path d="M2 50C2 23.4903 23.4903 2 50 2V-2C21.2812 -2 -2 21.2812 -2 50H2ZM2 635V50H-2V635H2ZM50 683C23.4903 683 2 661.51 2 635H-2C-2 663.719 21.2812 687 50 687V683ZM390 683H50V687H390V683ZM396 683H390V687H396V683ZM501 683H396V687H501V683ZM549 635C549 661.51 527.51 683 501 683V687C529.719 687 553 663.719 553 635H549ZM549 528V635H553V528H549ZM501 480C527.51 480 549 501.49 549 528H553C553 499.281 529.719 476 501 476V480ZM446 480H501V476H446V480ZM390 480H446V476H390V480ZM224.5 480H390V476H224.5V480ZM154 409.5C154 448.436 185.564 480 224.5 480V476C187.773 476 158 446.227 158 409.5H154ZM224.5 339C185.564 339 154 370.564 154 409.5H158C158 372.773 187.773 343 224.5 343V339ZM358 339H224.5V343H358V339ZM446 339H358V343H446V339ZM501 339H446V343H501V339ZM549 291C549 317.51 527.51 339 501 339V343C529.719 343 553 319.719 553 291H549ZM549 50V291H553V50H549ZM501 2C527.51 2 549 23.4903 549 50H553C553 21.2812 529.719 -2 501 -2V2ZM396 2H501V-2H396V2ZM358 2H396V-2H358V2ZM50 2H358V-2H50V2Z" fill="#DEDEDE" mask="url(#path-1-inside-1_27_346)"/>
</svg>
